<?xml version="1.0" encoding="utf-8"?>
<!-- Generator: Adobe Illustrator 21.1.0, SVG Export Plug-In . SVG Version: 6.00 Build 0)  -->
<svg version="1.1" id="Layer_1" xmlns="http://www.w3.org/2000/svg" xmlns:xlink="http://www.w3.org/1999/xlink" x="0px" y="0px"
	 viewBox="0 0 181.3 223.8" style="enable-background:new 0 0 181.3 223.8;" xml:space="preserve">
<style type="text/css">
	.st0{clip-path:url(#SVGID_2_);}
	.st1{clip-path:url(#SVGID_4_);fill:#FFFFFF;}
	.st2{clip-path:url(#SVGID_6_);}
	.st3{clip-path:url(#SVGID_8_);fill:#FFD207;}
</style>
<g>
	<defs>
		<path id="SVGID_1_" d="M181.3,122.7c0,61.8-40.6,101.1-90.6,101.1S0,184.5,0,122.7S40.6,0,90.6,0S181.3,60.9,181.3,122.7z"/>
	</defs>
	<clipPath id="SVGID_2_">
		<use xlink:href="#SVGID_1_"  style="overflow:visible;"/>
	</clipPath>
	<g class="st0">
		<defs>
			<rect id="SVGID_3_" x="-97.4" y="-208.1" width="375" height="667"/>
		</defs>
		<clipPath id="SVGID_4_">
			<use xlink:href="#SVGID_3_"  style="overflow:visible;"/>
		</clipPath>
		<rect x="-5" y="-5" class="st1" width="191.3" height="233.8"/>
	</g>
</g>
<g>
	<defs>
		<path id="SVGID_5_" d="M144.9,131.8c0,33.2-24.4,58.6-54.4,58.6S36.3,165,36.3,131.8C36.3,98.6,60.5,70,90.5,70
			S144.9,98.5,144.9,131.8z"/>
	</defs>
	<clipPath id="SVGID_6_">
		<use xlink:href="#SVGID_5_"  style="overflow:visible;"/>
	</clipPath>
	<g class="st2">
		<defs>
			<rect id="SVGID_7_" x="-97.4" y="-208.1" width="375" height="667"/>
		</defs>
		<clipPath id="SVGID_8_">
			<use xlink:href="#SVGID_7_"  style="overflow:visible;"/>
		</clipPath>
		<rect x="31.3" y="65" class="st3" width="118.6" height="130.4"/>
	</g>
</g>
</svg>
